# Generated with VCore (https://github.com/VOptimizer/VCore)
# These comments can be removed
mtllib seed.mtl
o VoxelModel0
v -2 1 -2
v -2 1 2
v -2 4 -2
v -2 4 2
v -2 2 -3
v -2 2 -2
v -2 3 -3
v -2 3 -2
v -2 2 2
v -2 2 3
v -2 3 2
v -2 3 3
v -1 0 -2
v -1 0 2
v -1 1 -2
v -1 1 2
v -1 1 -3
v -1 2 -3
v -1 2 -2
v -1 1 3
v -1 2 2
v -1 2 3
v -1 2 -4
v -1 3 -4
v -1 3 -3
v -1 2 4
v -1 3 3
v -1 3 4
v -1 3 -2
v -1 4 -3
v -1 4 -2
v -1 3 2
v -1 4 2
v -1 4 3
v -1 5 -2
v -1 5 2
v 0 0 -3
v 0 0 -2
v 0 1 -3
v 0 1 -2
v 0 0 2
v 0 0 3
v 0 1 2
v 0 1 3
v 0 1 -4
v 0 2 -4
v 0 2 -3
v 0 1 4
v 0 2 3
v 0 2 4
v 0 3 -4
v 0 3 -3
v 0 4 -4
v 0 4 -3
v 0 3 3
v 0 3 4
v 0 4 3
v 0 4 4
v 0 4 -2
v 0 5 -3
v 0 5 -2
v 0 4 2
v 0 5 2
v 0 5 3
v 2 0 -3
v 2 0 -2
v 2 1 -3
v 2 1 -2
v 2 0 2
v 2 0 3
v 2 1 2
v 2 1 3
v 2 1 -4
v 2 2 -4
v 2 2 -3
v 2 1 4
v 2 2 3
v 2 2 4
v 2 3 -4
v 2 3 -3
v 2 4 -4
v 2 4 -3
v 2 3 3
v 2 3 4
v 2 4 3
v 2 4 4
v 2 4 -3
v 2 4 -2
v 2 5 -3
v 2 5 -2
v 2 4 2
v 2 5 2
v 2 5 3
v 3 0 -2
v 3 0 2
v 3 1 -2
v 3 1 2
v 3 1 -3
v 3 2 -3
v 3 2 -2
v 3 1 3
v 3 2 2
v 3 2 3
v 3 2 -4
v 3 3 -4
v 3 3 -3
v 3 2 4
v 3 3 3
v 3 3 4
v 3 3 -3
v 3 3 -2
v 3 4 -3
v 3 4 -2
v 3 3 2
v 3 4 2
v 3 4 3
v 3 4 -1
v 3 5 -2
v 3 5 -1
v 3 4 1
v 3 5 1
v 3 5 2
v 4 1 -2
v 4 1 2
v 4 4 -2
v 4 4 2
v 4 2 -3
v 4 2 -2
v 4 3 -3
v 4 3 -2
v 4 2 2
v 4 2 3
v 4 3 2
v 4 3 3
v 4 4 -1
v 4 4 1
v 4 5 -1
v 4 5 1
v 4 5 0
v 4 5 2
v 4 6 0
v 4 6 2
v 5 5 0
v 5 5 2
v 5 6 0
v 5 6 2
v 0 0 -3
v 2 0 -3
v 0 0 3
v 2 0 3
v -1 0 -2
v 0 0 -2
v -1 0 2
v 0 0 2
v 2 0 -2
v 3 0 -2
v 2 0 2
v 3 0 2
v 0 1 -4
v 2 1 -4
v 0 1 -3
v 2 1 -3
v -1 1 -3
v -1 1 -2
v 0 1 -2
v 3 1 -3
v 2 1 -2
v 3 1 -2
v -2 1 -2
v -2 1 2
v -1 1 2
v 4 1 -2
v 3 1 2
v 4 1 2
v 0 1 2
v -1 1 3
v 0 1 3
v 2 1 2
v 2 1 3
v 3 1 3
v 0 1 4
v 2 1 4
v -1 2 -4
v 0 2 -4
v -1 2 -3
v 0 2 -3
v 2 2 -4
v 3 2 -4
v 2 2 -3
v 3 2 -3
v -2 2 -3
v -2 2 -2
v -1 2 -2
v 4 2 -3
v 3 2 -2
v 4 2 -2
v -2 2 2
v -1 2 2
v -2 2 3
v -1 2 3
v 3 2 2
v 4 2 2
v 3 2 3
v 4 2 3
v 0 2 3
v -1 2 4
v 0 2 4
v 2 2 3
v 2 2 4
v 3 2 4
v -1 3 -4
v 0 3 -4
v -1 3 -3
v 0 3 -3
v 2 3 -4
v 3 3 -4
v 2 3 -3
v 3 3 -3
v -2 3 -3
v -2 3 -2
v -1 3 -2
v 4 3 -3
v 3 3 -2
v 4 3 -2
v -2 3 2
v -1 3 2
v -2 3 3
v -1 3 3
v 3 3 2
v 4 3 2
v 3 3 3
v 4 3 3
v 0 3 3
v -1 3 4
v 0 3 4
v 2 3 3
v 2 3 4
v 3 3 4
v 0 4 -4
v 1 4 -4
v 0 4 -3
v 1 4 -3
v 1 4 -4
v 2 4 -4
v 1 4 -3
v 2 4 -3
v -1 4 -3
v -1 4 -2
v 0 4 -2
v 3 4 -3
v 2 4 -2
v 3 4 -2
v -2 4 -2
v -2 4 2
v -1 4 2
v 3 4 -2
v 4 4 -2
v 3 4 -1
v 4 4 -1
v 3 4 1
v 4 4 1
v 3 4 2
v 4 4 2
v 0 4 2
v -1 4 3
v 0 4 3
v 2 4 2
v 2 4 3
v 3 4 3
v 0 4 4
v 2 4 4
v 0 5 -3
v 2 5 -3
v 0 5 3
v 2 5 3
v -1 5 -2
v 0 5 -2
v -1 5 2
v 0 5 2
v 2 5 -2
v 3 5 -2
v 2 5 -1
v 3 5 -1
v 2 5 -1
v 3 5 -1
v 2 5 2
v 3 5 2
v 3 5 -1
v 4 5 -1
v 3 5 1
v 4 5 1
v 4 5 0
v 5 5 0
v 4 5 2
v 5 5 2
v 4 6 0
v 5 6 0
v 4 6 2
v 5 6 2
v -1 2 -4
v -1 3 -4
v 3 2 -4
v 3 3 -4
v 0 1 -4
v 0 2 -4
v 2 1 -4
v 2 2 -4
v 0 3 -4
v 0 4 -4
v 1 3 -4
v 1 4 -4
v 1 3 -4
v 1 4 -4
v 2 3 -4
v 2 4 -4
v -2 2 -3
v -2 3 -3
v -1 2 -3
v -1 3 -3
v -1 1 -3
v 0 1 -3
v 0 2 -3
v -1 4 -3
v 0 3 -3
v 0 4 -3
v 0 0 -3
v 2 0 -3
v 2 1 -3
v 0 5 -3
v 2 4 -3
v 2 5 -3
v 2 2 -3
v 3 1 -3
v 3 2 -3
v 2 3 -3
v 2 4 -3
v 3 3 -3
v 3 4 -3
v 3 3 -3
v 4 2 -3
v 4 3 -3
v -2 1 -2
v -2 2 -2
v -1 1 -2
v -1 2 -2
v -2 3 -2
v -2 4 -2
v -1 3 -2
v -1 4 -2
v -1 0 -2
v 0 0 -2
v 0 1 -2
v -1 5 -2
v 0 4 -2
v 0 5 -2
v 2 0 -2
v 2 1 -2
v 3 0 -2
v 3 1 -2
v 2 4 -2
v 2 5 -2
v 3 4 -2
v 3 5 -2
v 3 2 -2
v 4 1 -2
v 4 2 -2
v 3 3 -2
v 3 4 -2
v 4 3 -2
v 4 4 -2
v 3 4 -1
v 3 5 -1
v 4 4 -1
v 4 5 -1
v 4 5 0
v 4 6 0
v 5 5 0
v 5 6 0
v 3 4 1
v 3 5 1
v 4 4 1
v 4 5 1
v -2 1 2
v -2 2 2
v -1 1 2
v -1 2 2
v -2 3 2
v -2 4 2
v -1 3 2
v -1 4 2
v -1 0 2
v 0 0 2
v 0 1 2
v -1 5 2
v 0 4 2
v 0 5 2
v 2 0 2
v 2 1 2
v 3 0 2
v 3 1 2
v 2 4 2
v 2 5 2
v 3 4 2
v 3 5 2
v 3 2 2
v 4 1 2
v 4 2 2
v 3 3 2
v 4 3 2
v 4 4 2
v 4 5 2
v 4 6 2
v 5 5 2
v 5 6 2
v -2 2 3
v -2 3 3
v -1 2 3
v -1 3 3
v -1 1 3
v 0 1 3
v 0 2 3
v -1 4 3
v 0 3 3
v 0 4 3
v 0 0 3
v 2 0 3
v 2 1 3
v 0 5 3
v 2 4 3
v 2 5 3
v 2 2 3
v 3 1 3
v 3 2 3
v 2 3 3
v 3 3 3
v 3 4 3
v 4 2 3
v 4 3 3
v -1 2 4
v -1 3 4
v 3 2 4
v 3 3 4
v 0 1 4
v 0 2 4
v 2 1 4
v 2 2 4
v 0 3 4
v 0 4 4
v 2 3 4
v 2 4 4

vn -1 0 0
vn -1 0 0
vn -1 0 0
vn -1 0 0
vn -1 0 0
vn -1 0 0
vn -1 0 0
vn -1 0 0
vn -1 0 0
vn -1 0 0
vn -1 0 0
vn -1 0 0
vn -1 0 0
vn -1 0 0
vn -1 0 0
vn -1 0 0
vn -1 0 0
vn -1 0 0
vn -1 0 0
vn -1 0 0
vn -1 0 0
vn -1 0 0
vn -1 0 0
vn -1 0 0
vn -1 0 0
vn -1 0 0
vn -1 0 0
vn -1 0 0
vn -1 0 0
vn -1 0 0
vn -1 0 0
vn -1 0 0
vn -1 0 0
vn -1 0 0
vn -1 0 0
vn -1 0 0
vn -1 0 0
vn -1 0 0
vn -1 0 0
vn -1 0 0
vn -1 0 0
vn -1 0 0
vn -1 0 0
vn -1 0 0
vn -1 0 0
vn -1 0 0
vn -1 0 0
vn -1 0 0
vn -1 0 0
vn -1 0 0
vn -1 0 0
vn -1 0 0
vn -1 0 0
vn -1 0 0
vn -1 0 0
vn -1 0 0
vn -1 0 0
vn -1 0 0
vn -1 0 0
vn -1 0 0
vn -1 0 0
vn -1 0 0
vn -1 0 0
vn -1 0 0
vn 1 0 0
vn 1 0 0
vn 1 0 0
vn 1 0 0
vn 1 0 0
vn 1 0 0
vn 1 0 0
vn 1 0 0
vn 1 0 0
vn 1 0 0
vn 1 0 0
vn 1 0 0
vn 1 0 0
vn 1 0 0
vn 1 0 0
vn 1 0 0
vn 1 0 0
vn 1 0 0
vn 1 0 0
vn 1 0 0
vn 1 0 0
vn 1 0 0
vn 1 0 0
vn 1 0 0
vn 1 0 0
vn 1 0 0
vn 1 0 0
vn 1 0 0
vn 1 0 0
vn 1 0 0
vn 1 0 0
vn 1 0 0
vn 1 0 0
vn 1 0 0
vn 1 0 0
vn 1 0 0
vn 1 0 0
vn 1 0 0
vn 1 0 0
vn 1 0 0
vn 1 0 0
vn 1 0 0
vn 1 0 0
vn 1 0 0
vn 1 0 0
vn 1 0 0
vn 1 0 0
vn 1 0 0
vn 1 0 0
vn 1 0 0
vn 1 0 0
vn 1 0 0
vn 1 0 0
vn 1 0 0
vn 1 0 0
vn 1 0 0
vn 1 0 0
vn 1 0 0
vn 1 0 0
vn 1 0 0
vn 1 0 0
vn 1 0 0
vn 1 0 0
vn 1 0 0
vn 1 0 0
vn 1 0 0
vn 1 0 0
vn 1 0 0
vn 1 0 0
vn 1 0 0
vn 1 0 0
vn 1 0 0
vn 1 0 0
vn 1 0 0
vn -1 0 0
vn -1 0 0
vn -1 0 0
vn -1 0 0
vn 1 0 0
vn 1 0 0
vn 1 0 0
vn 1 0 0
vn 0 -1 0
vn 0 -1 0
vn 0 -1 0
vn 0 -1 0
vn 0 -1 0
vn 0 -1 0
vn 0 -1 0
vn 0 -1 0
vn 0 -1 0
vn 0 -1 0
vn 0 -1 0
vn 0 -1 0
vn 0 -1 0
vn 0 -1 0
vn 0 -1 0
vn 0 -1 0
vn 0 -1 0
vn 0 -1 0
vn 0 -1 0
vn 0 -1 0
vn 0 -1 0
vn 0 -1 0
vn 0 -1 0
vn 0 -1 0
vn 0 -1 0
vn 0 -1 0
vn 0 -1 0
vn 0 -1 0
vn 0 -1 0
vn 0 -1 0
vn 0 -1 0
vn 0 -1 0
vn 0 -1 0
vn 0 -1 0
vn 0 -1 0
vn 0 -1 0
vn 0 -1 0
vn 0 -1 0
vn 0 -1 0
vn 0 -1 0
vn 0 -1 0
vn 0 -1 0
vn 0 -1 0
vn 0 -1 0
vn 0 -1 0
vn 0 -1 0
vn 0 -1 0
vn 0 -1 0
vn 0 -1 0
vn 0 -1 0
vn 0 -1 0
vn 0 -1 0
vn 0 -1 0
vn 0 -1 0
vn 0 -1 0
vn 0 -1 0
vn 0 -1 0
vn 0 -1 0
vn 0 -1 0
vn 0 -1 0
vn 0 -1 0
vn 0 -1 0
vn 0 -1 0
vn 0 -1 0
vn 0 1 0
vn 0 1 0
vn 0 1 0
vn 0 1 0
vn 0 1 0
vn 0 1 0
vn 0 1 0
vn 0 1 0
vn 0 1 0
vn 0 1 0
vn 0 1 0
vn 0 1 0
vn 0 1 0
vn 0 1 0
vn 0 1 0
vn 0 1 0
vn 0 1 0
vn 0 1 0
vn 0 1 0
vn 0 1 0
vn 0 1 0
vn 0 1 0
vn 0 1 0
vn 0 1 0
vn 0 1 0
vn 0 1 0
vn 0 1 0
vn 0 1 0
vn 0 1 0
vn 0 1 0
vn 0 1 0
vn 0 1 0
vn 0 1 0
vn 0 1 0
vn 0 1 0
vn 0 1 0
vn 0 1 0
vn 0 1 0
vn 0 1 0
vn 0 1 0
vn 0 1 0
vn 0 1 0
vn 0 1 0
vn 0 1 0
vn 0 1 0
vn 0 1 0
vn 0 1 0
vn 0 1 0
vn 0 1 0
vn 0 1 0
vn 0 1 0
vn 0 1 0
vn 0 1 0
vn 0 1 0
vn 0 1 0
vn 0 1 0
vn 0 1 0
vn 0 1 0
vn 0 1 0
vn 0 1 0
vn 0 1 0
vn 0 1 0
vn 0 1 0
vn 0 1 0
vn 0 1 0
vn 0 1 0
vn 0 1 0
vn 0 1 0
vn 0 1 0
vn 0 1 0
vn 0 1 0
vn 0 1 0
vn 0 1 0
vn 0 1 0
vn 0 1 0
vn 0 1 0
vn 0 1 0
vn 0 1 0
vn 0 1 0
vn 0 1 0
vn 0 1 0
vn 0 -1 0
vn 0 -1 0
vn 0 -1 0
vn 0 -1 0
vn 0 1 0
vn 0 1 0
vn 0 1 0
vn 0 1 0
vn 0 0 -1
vn 0 0 -1
vn 0 0 -1
vn 0 0 -1
vn 0 0 -1
vn 0 0 -1
vn 0 0 -1
vn 0 0 -1
vn 0 0 -1
vn 0 0 -1
vn 0 0 -1
vn 0 0 -1
vn 0 0 -1
vn 0 0 -1
vn 0 0 -1
vn 0 0 -1
vn 0 0 -1
vn 0 0 -1
vn 0 0 -1
vn 0 0 -1
vn 0 0 -1
vn 0 0 -1
vn 0 0 -1
vn 0 0 -1
vn 0 0 -1
vn 0 0 -1
vn 0 0 -1
vn 0 0 -1
vn 0 0 -1
vn 0 0 -1
vn 0 0 -1
vn 0 0 -1
vn 0 0 -1
vn 0 0 -1
vn 0 0 -1
vn 0 0 -1
vn 0 0 -1
vn 0 0 -1
vn 0 0 -1
vn 0 0 -1
vn 0 0 -1
vn 0 0 -1
vn 0 0 -1
vn 0 0 -1
vn 0 0 -1
vn 0 0 -1
vn 0 0 -1
vn 0 0 -1
vn 0 0 -1
vn 0 0 -1
vn 0 0 -1
vn 0 0 -1
vn 0 0 -1
vn 0 0 -1
vn 0 0 -1
vn 0 0 -1
vn 0 0 -1
vn 0 0 -1
vn 0 0 -1
vn 0 0 -1
vn 0 0 -1
vn 0 0 -1
vn 0 0 -1
vn 0 0 -1
vn 0 0 -1
vn 0 0 -1
vn 0 0 -1
vn 0 0 -1
vn 0 0 -1
vn 0 0 -1
vn 0 0 -1
vn 0 0 -1
vn 0 0 -1
vn 0 0 -1
vn 0 0 -1
vn 0 0 -1
vn 0 0 -1
vn 0 0 -1
vn 0 0 -1
vn 0 0 1
vn 0 0 1
vn 0 0 1
vn 0 0 1
vn 0 0 1
vn 0 0 1
vn 0 0 1
vn 0 0 1
vn 0 0 1
vn 0 0 1
vn 0 0 1
vn 0 0 1
vn 0 0 1
vn 0 0 1
vn 0 0 1
vn 0 0 1
vn 0 0 1
vn 0 0 1
vn 0 0 1
vn 0 0 1
vn 0 0 1
vn 0 0 1
vn 0 0 1
vn 0 0 1
vn 0 0 1
vn 0 0 1
vn 0 0 1
vn 0 0 1
vn 0 0 1
vn 0 0 1
vn 0 0 1
vn 0 0 1
vn 0 0 1
vn 0 0 1
vn 0 0 1
vn 0 0 1
vn 0 0 1
vn 0 0 1
vn 0 0 1
vn 0 0 1
vn 0 0 1
vn 0 0 1
vn 0 0 1
vn 0 0 1
vn 0 0 1
vn 0 0 1
vn 0 0 1
vn 0 0 1
vn 0 0 1
vn 0 0 1
vn 0 0 1
vn 0 0 1
vn 0 0 1
vn 0 0 1
vn 0 0 1
vn 0 0 1
vn 0 0 1
vn 0 0 1
vn 0 0 1
vn 0 0 1
vn 0 0 1
vn 0 0 1
vn 0 0 1
vn 0 0 1
vn 0 0 1
vn 0 0 1
vn 0 0 1
vn 0 0 1
vn 0 0 1
vn 0 0 1
vn 0 0 1
vn 0 0 1

vt 0.166667 0.5
vt 0.166667 0.5
vt 0.166667 0.5
vt 0.166667 0.5
vt 0.166667 0.5
vt 0.166667 0.5
vt 0.166667 0.5
vt 0.166667 0.5
vt 0.166667 0.5
vt 0.166667 0.5
vt 0.166667 0.5
vt 0.166667 0.5
vt 0.166667 0.5
vt 0.166667 0.5
vt 0.166667 0.5
vt 0.166667 0.5
vt 0.166667 0.5
vt 0.166667 0.5
vt 0.166667 0.5
vt 0.166667 0.5
vt 0.166667 0.5
vt 0.166667 0.5
vt 0.166667 0.5
vt 0.166667 0.5
vt 0.166667 0.5
vt 0.166667 0.5
vt 0.166667 0.5
vt 0.166667 0.5
vt 0.166667 0.5
vt 0.166667 0.5
vt 0.166667 0.5
vt 0.166667 0.5
vt 0.166667 0.5
vt 0.166667 0.5
vt 0.166667 0.5
vt 0.166667 0.5
vt 0.166667 0.5
vt 0.166667 0.5
vt 0.166667 0.5
vt 0.166667 0.5
vt 0.166667 0.5
vt 0.166667 0.5
vt 0.166667 0.5
vt 0.166667 0.5
vt 0.166667 0.5
vt 0.166667 0.5
vt 0.166667 0.5
vt 0.166667 0.5
vt 0.166667 0.5
vt 0.166667 0.5
vt 0.166667 0.5
vt 0.166667 0.5
vt 0.166667 0.5
vt 0.166667 0.5
vt 0.166667 0.5
vt 0.166667 0.5
vt 0.166667 0.5
vt 0.166667 0.5
vt 0.166667 0.5
vt 0.166667 0.5
vt 0.166667 0.5
vt 0.166667 0.5
vt 0.166667 0.5
vt 0.166667 0.5
vt 0.166667 0.5
vt 0.166667 0.5
vt 0.166667 0.5
vt 0.166667 0.5
vt 0.166667 0.5
vt 0.166667 0.5
vt 0.166667 0.5
vt 0.166667 0.5
vt 0.166667 0.5
vt 0.166667 0.5
vt 0.166667 0.5
vt 0.166667 0.5
vt 0.166667 0.5
vt 0.166667 0.5
vt 0.5 0.5
vt 0.5 0.5
vt 0.5 0.5
vt 0.5 0.5
vt 0.166667 0.5
vt 0.166667 0.5
vt 0.166667 0.5
vt 0.166667 0.5
vt 0.166667 0.5
vt 0.166667 0.5
vt 0.166667 0.5
vt 0.166667 0.5
vt 0.166667 0.5
vt 0.166667 0.5
vt 0.166667 0.5
vt 0.166667 0.5
vt 0.166667 0.5
vt 0.166667 0.5
vt 0.166667 0.5
vt 0.166667 0.5
vt 0.166667 0.5
vt 0.166667 0.5
vt 0.166667 0.5
vt 0.166667 0.5
vt 0.166667 0.5
vt 0.166667 0.5
vt 0.166667 0.5
vt 0.166667 0.5
vt 0.166667 0.5
vt 0.166667 0.5
vt 0.166667 0.5
vt 0.5 0.5
vt 0.5 0.5
vt 0.5 0.5
vt 0.5 0.5
vt 0.166667 0.5
vt 0.166667 0.5
vt 0.166667 0.5
vt 0.5 0.5
vt 0.5 0.5
vt 0.5 0.5
vt 0.166667 0.5
vt 0.166667 0.5
vt 0.166667 0.5
vt 0.166667 0.5
vt 0.166667 0.5
vt 0.166667 0.5
vt 0.166667 0.5
vt 0.166667 0.5
vt 0.166667 0.5
vt 0.166667 0.5
vt 0.166667 0.5
vt 0.166667 0.5
vt 0.166667 0.5
vt 0.166667 0.5
vt 0.166667 0.5
vt 0.833333 0.5
vt 0.833333 0.5
vt 0.833333 0.5
vt 0.833333 0.5
vt 0.833333 0.5
vt 0.833333 0.5
vt 0.833333 0.5
vt 0.833333 0.5
vt 0.833333 0.5
vt 0.833333 0.5
vt 0.833333 0.5
vt 0.833333 0.5
vt 0.166667 0.5
vt 0.166667 0.5
vt 0.166667 0.5
vt 0.166667 0.5
vt 0.166667 0.5
vt 0.166667 0.5
vt 0.166667 0.5
vt 0.166667 0.5
vt 0.166667 0.5
vt 0.166667 0.5
vt 0.166667 0.5
vt 0.166667 0.5
vt 0.166667 0.5
vt 0.166667 0.5
vt 0.166667 0.5
vt 0.166667 0.5
vt 0.166667 0.5
vt 0.166667 0.5
vt 0.166667 0.5
vt 0.166667 0.5
vt 0.166667 0.5
vt 0.166667 0.5
vt 0.166667 0.5
vt 0.166667 0.5
vt 0.166667 0.5
vt 0.166667 0.5
vt 0.166667 0.5
vt 0.166667 0.5
vt 0.166667 0.5
vt 0.166667 0.5
vt 0.166667 0.5
vt 0.166667 0.5
vt 0.166667 0.5
vt 0.166667 0.5
vt 0.166667 0.5
vt 0.166667 0.5
vt 0.166667 0.5
vt 0.166667 0.5
vt 0.166667 0.5
vt 0.166667 0.5
vt 0.166667 0.5
vt 0.166667 0.5
vt 0.166667 0.5
vt 0.166667 0.5
vt 0.166667 0.5
vt 0.166667 0.5
vt 0.166667 0.5
vt 0.166667 0.5
vt 0.166667 0.5
vt 0.166667 0.5
vt 0.166667 0.5
vt 0.166667 0.5
vt 0.166667 0.5
vt 0.166667 0.5
vt 0.166667 0.5
vt 0.166667 0.5
vt 0.166667 0.5
vt 0.166667 0.5
vt 0.166667 0.5
vt 0.166667 0.5
vt 0.166667 0.5
vt 0.166667 0.5
vt 0.166667 0.5
vt 0.166667 0.5
vt 0.166667 0.5
vt 0.166667 0.5
vt 0.166667 0.5
vt 0.166667 0.5
vt 0.166667 0.5
vt 0.166667 0.5
vt 0.166667 0.5
vt 0.166667 0.5
vt 0.166667 0.5
vt 0.166667 0.5
vt 0.166667 0.5
vt 0.166667 0.5
vt 0.166667 0.5
vt 0.166667 0.5
vt 0.166667 0.5
vt 0.166667 0.5
vt 0.166667 0.5
vt 0.166667 0.5
vt 0.166667 0.5
vt 0.166667 0.5
vt 0.166667 0.5
vt 0.166667 0.5
vt 0.166667 0.5
vt 0.166667 0.5
vt 0.166667 0.5
vt 0.166667 0.5
vt 0.166667 0.5
vt 0.166667 0.5
vt 0.166667 0.5
vt 0.166667 0.5
vt 0.166667 0.5
vt 0.166667 0.5
vt 0.5 0.5
vt 0.5 0.5
vt 0.5 0.5
vt 0.5 0.5
vt 0.166667 0.5
vt 0.166667 0.5
vt 0.166667 0.5
vt 0.5 0.5
vt 0.5 0.5
vt 0.5 0.5
vt 0.166667 0.5
vt 0.166667 0.5
vt 0.166667 0.5
vt 0.166667 0.5
vt 0.166667 0.5
vt 0.166667 0.5
vt 0.166667 0.5
vt 0.166667 0.5
vt 0.166667 0.5
vt 0.166667 0.5
vt 0.166667 0.5
vt 0.166667 0.5
vt 0.166667 0.5
vt 0.166667 0.5
vt 0.166667 0.5
vt 0.166667 0.5
vt 0.166667 0.5
vt 0.166667 0.5
vt 0.166667 0.5
vt 0.166667 0.5
vt 0.166667 0.5
vt 0.166667 0.5
vt 0.166667 0.5
vt 0.166667 0.5
vt 0.166667 0.5
vt 0.166667 0.5
vt 0.166667 0.5
vt 0.5 0.5
vt 0.5 0.5
vt 0.5 0.5
vt 0.5 0.5
vt 0.166667 0.5
vt 0.166667 0.5
vt 0.166667 0.5
vt 0.166667 0.5
vt 0.833333 0.5
vt 0.833333 0.5
vt 0.833333 0.5
vt 0.833333 0.5
vt 0.833333 0.5
vt 0.833333 0.5
vt 0.833333 0.5
vt 0.833333 0.5
vt 0.833333 0.5
vt 0.833333 0.5
vt 0.833333 0.5
vt 0.833333 0.5
vt 0.166667 0.5
vt 0.166667 0.5
vt 0.166667 0.5
vt 0.166667 0.5
vt 0.166667 0.5
vt 0.166667 0.5
vt 0.166667 0.5
vt 0.166667 0.5
vt 0.166667 0.5
vt 0.166667 0.5
vt 0.166667 0.5
vt 0.166667 0.5
vt 0.5 0.5
vt 0.5 0.5
vt 0.5 0.5
vt 0.5 0.5
vt 0.166667 0.5
vt 0.166667 0.5
vt 0.166667 0.5
vt 0.166667 0.5
vt 0.166667 0.5
vt 0.166667 0.5
vt 0.166667 0.5
vt 0.166667 0.5
vt 0.166667 0.5
vt 0.166667 0.5
vt 0.166667 0.5
vt 0.166667 0.5
vt 0.166667 0.5
vt 0.166667 0.5
vt 0.166667 0.5
vt 0.166667 0.5
vt 0.166667 0.5
vt 0.166667 0.5
vt 0.166667 0.5
vt 0.5 0.5
vt 0.5 0.5
vt 0.5 0.5
vt 0.5 0.5
vt 0.166667 0.5
vt 0.166667 0.5
vt 0.166667 0.5
vt 0.166667 0.5
vt 0.166667 0.5
vt 0.166667 0.5
vt 0.166667 0.5
vt 0.166667 0.5
vt 0.166667 0.5
vt 0.166667 0.5
vt 0.166667 0.5
vt 0.166667 0.5
vt 0.166667 0.5
vt 0.166667 0.5
vt 0.166667 0.5
vt 0.166667 0.5
vt 0.166667 0.5
vt 0.166667 0.5
vt 0.166667 0.5
vt 0.166667 0.5
vt 0.166667 0.5
vt 0.5 0.5
vt 0.5 0.5
vt 0.5 0.5
vt 0.5 0.5
vt 0.166667 0.5
vt 0.166667 0.5
vt 0.166667 0.5
vt 0.166667 0.5
vt 0.166667 0.5
vt 0.166667 0.5
vt 0.166667 0.5
vt 0.833333 0.5
vt 0.833333 0.5
vt 0.833333 0.5
vt 0.833333 0.5
vt 0.833333 0.5
vt 0.833333 0.5
vt 0.833333 0.5
vt 0.833333 0.5
vt 0.833333 0.5
vt 0.833333 0.5
vt 0.833333 0.5
vt 0.833333 0.5
vt 0.166667 0.5
vt 0.166667 0.5
vt 0.166667 0.5
vt 0.166667 0.5
vt 0.166667 0.5
vt 0.166667 0.5
vt 0.166667 0.5
vt 0.166667 0.5
vt 0.166667 0.5
vt 0.166667 0.5
vt 0.166667 0.5
vt 0.166667 0.5
vt 0.166667 0.5
vt 0.166667 0.5
vt 0.166667 0.5
vt 0.166667 0.5
vt 0.166667 0.5
vt 0.166667 0.5
vt 0.166667 0.5
vt 0.166667 0.5
vt 0.166667 0.5
vt 0.166667 0.5
vt 0.166667 0.5
vt 0.166667 0.5
vt 0.166667 0.5
vt 0.166667 0.5
vt 0.166667 0.5
vt 0.166667 0.5
vt 0.833333 0.5
vt 0.833333 0.5
vt 0.833333 0.5
vt 0.833333 0.5
vt 0.166667 0.5
vt 0.166667 0.5
vt 0.166667 0.5
vt 0.166667 0.5
vt 0.166667 0.5
vt 0.166667 0.5
vt 0.166667 0.5
vt 0.166667 0.5
vt 0.166667 0.5
vt 0.166667 0.5
vt 0.166667 0.5
vt 0.166667 0.5
vt 0.166667 0.5
vt 0.166667 0.5
vt 0.166667 0.5
vt 0.166667 0.5
vt 0.166667 0.5
vt 0.166667 0.5
vt 0.166667 0.5
vt 0.166667 0.5
vt 0.166667 0.5
vt 0.166667 0.5
vt 0.166667 0.5
vt 0.166667 0.5
vt 0.166667 0.5
vt 0.166667 0.5
vt 0.166667 0.5
vt 0.166667 0.5
vt 0.166667 0.5
vt 0.166667 0.5
vt 0.166667 0.5
vt 0.166667 0.5
vt 0.166667 0.5
vt 0.166667 0.5
vt 0.166667 0.5
vt 0.166667 0.5

usemtl Mat0
f 1/1/1 2/2/2 3/3/3
f 2/2/2 4/4/4 3/3/3
f 5/5/5 6/6/6 7/7/7
f 6/6/6 8/8/8 7/7/7
f 9/9/9 10/10/10 11/11/11
f 10/10/10 12/12/12 11/11/11
f 13/13/13 14/14/14 15/15/15
f 14/14/14 16/16/16 15/15/15
f 17/17/17 15/15/15 18/18/18
f 15/15/15 19/19/19 18/18/18
f 16/16/16 20/20/20 21/21/21
f 20/20/20 22/22/22 21/21/21
f 23/23/23 18/18/18 24/24/24
f 18/18/18 25/25/25 24/24/24
f 22/22/22 26/26/26 27/27/27
f 26/26/26 28/28/28 27/27/27
f 25/25/25 29/29/29 30/30/30
f 29/29/29 31/31/31 30/30/30
f 32/32/32 27/27/27 33/33/33
f 27/27/27 34/34/34 33/33/33
f 31/31/31 33/33/33 35/35/35
f 33/33/33 36/36/36 35/35/35
f 37/37/37 38/38/38 39/39/39
f 38/38/38 40/40/40 39/39/39
f 41/41/41 42/42/42 43/43/43
f 42/42/42 44/44/44 43/43/43
f 45/45/45 39/39/39 46/46/46
f 39/39/39 47/47/47 46/46/46
f 44/44/44 48/48/48 49/49/49
f 48/48/48 50/50/50 49/49/49
f 51/51/51 52/52/52 53/53/53
f 52/52/52 54/54/54 53/53/53
f 55/55/55 56/56/56 57/57/57
f 56/56/56 58/58/58 57/57/57
f 54/54/54 59/59/59 60/60/60
f 59/59/59 61/61/61 60/60/60
f 62/62/62 57/57/57 63/63/63
f 57/57/57 64/64/64 63/63/63
f 67/67/67 66/66/66 65/65/65
f 67/67/67 68/68/68 66/66/66
f 71/71/71 70/70/70 69/69/69
f 71/71/71 72/72/72 70/70/70
f 74/74/74 67/67/67 73/73/73
f 74/74/74 75/75/75 67/67/67
f 77/77/77 76/76/76 72/72/72
f 77/77/77 78/78/78 76/76/76
f 81/81/81 80/80/80 79/79/79
f 81/81/81 82/82/82 80/80/80
f 85/85/85 84/84/84 83/83/83
f 85/85/85 86/86/86 84/84/84
f 89/89/89 88/88/88 87/87/87
f 89/89/89 90/90/90 88/88/88
f 92/92/92 85/85/85 91/91/91
f 92/92/92 93/93/93 85/85/85
f 96/96/96 95/95/95 94/94/94
f 96/96/96 97/97/97 95/95/95
f 99/99/99 96/96/96 98/98/98
f 99/99/99 100/100/100 96/96/96
f 102/102/102 101/101/101 97/97/97
f 102/102/102 103/103/103 101/101/101
f 105/105/105 99/99/99 104/104/104
f 105/105/105 106/106/106 99/99/99
f 108/108/108 107/107/107 103/103/103
f 108/108/108 109/109/109 107/107/107
f 112/112/112 111/111/111 110/110/110
f 112/112/112 113/113/113 111/111/111
f 115/115/115 108/108/108 114/114/114
f 115/115/115 116/116/116 108/108/108
f 118/118/118 117/117/117 113/113/113
f 118/118/118 119/119/119 117/117/117
f 121/121/121 115/115/115 120/120/120
f 121/121/121 122/122/122 115/115/115
f 125/125/125 124/124/124 123/123/123
f 125/125/125 126/126/126 124/124/124
f 129/129/129 128/128/128 127/127/127
f 129/129/129 130/130/130 128/128/128
f 133/133/133 132/132/132 131/131/131
f 133/133/133 134/134/134 132/132/132
f 137/137/137 136/136/136 135/135/135
f 137/137/137 138/138/138 136/136/136
f 139/139/139 140/140/140 141/141/141
f 140/140/140 142/142/142 141/141/141
f 145/145/145 144/144/144 143/143/143
f 145/145/145 146/146/146 144/144/144
f 147/147/147 148/148/148 149/149/149
f 148/148/148 150/150/150 149/149/149
f 151/151/151 152/152/152 153/153/153
f 152/152/152 154/154/154 153/153/153
f 155/155/155 156/156/156 157/157/157
f 156/156/156 158/158/158 157/157/157
f 159/159/159 160/160/160 161/161/161
f 160/160/160 162/162/162 161/161/161
f 163/163/163 161/161/161 164/164/164
f 161/161/161 165/165/165 164/164/164
f 162/162/162 166/166/166 167/167/167
f 166/166/166 168/168/168 167/167/167
f 169/169/169 164/164/164 170/170/170
f 164/164/164 171/171/171 170/170/170
f 168/168/168 172/172/172 173/173/173
f 172/172/172 174/174/174 173/173/173
f 171/171/171 175/175/175 176/176/176
f 175/175/175 177/177/177 176/176/176
f 178/178/178 173/173/173 179/179/179
f 173/173/173 180/180/180 179/179/179
f 177/177/177 179/179/179 181/181/181
f 179/179/179 182/182/182 181/181/181
f 183/183/183 184/184/184 185/185/185
f 184/184/184 186/186/186 185/185/185
f 187/187/187 188/188/188 189/189/189
f 188/188/188 190/190/190 189/189/189
f 191/191/191 185/185/185 192/192/192
f 185/185/185 193/193/193 192/192/192
f 190/190/190 194/194/194 195/195/195
f 194/194/194 196/196/196 195/195/195
f 197/197/197 198/198/198 199/199/199
f 198/198/198 200/200/200 199/199/199
f 201/201/201 202/202/202 203/203/203
f 202/202/202 204/204/204 203/203/203
f 200/200/200 205/205/205 206/206/206
f 205/205/205 207/207/207 206/206/206
f 208/208/208 203/203/203 209/209/209
f 203/203/203 210/210/210 209/209/209
f 213/213/213 212/212/212 211/211/211
f 213/213/213 214/214/214 212/212/212
f 217/217/217 216/216/216 215/215/215
f 217/217/217 218/218/218 216/216/216
f 220/220/220 213/213/213 219/219/219
f 220/220/220 221/221/221 213/213/213
f 223/223/223 222/222/222 218/218/218
f 223/223/223 224/224/224 222/222/222
f 227/227/227 226/226/226 225/225/225
f 227/227/227 228/228/228 226/226/226
f 231/231/231 230/230/230 229/229/229
f 231/231/231 232/232/232 230/230/230
f 234/234/234 233/233/233 228/228/228
f 234/234/234 235/235/235 233/233/233
f 237/237/237 231/231/231 236/236/236
f 237/237/237 238/238/238 231/231/231
f 241/241/241 240/240/240 239/239/239
f 241/241/241 242/242/242 240/240/240
f 245/245/245 244/244/244 243/243/243
f 245/245/245 246/246/246 244/244/244
f 248/248/248 241/241/241 247/247/247
f 248/248/248 249/249/249 241/241/241
f 251/251/251 250/250/250 246/246/246
f 251/251/251 252/252/252 250/250/250
f 254/254/254 248/248/248 253/253/253
f 254/254/254 255/255/255 248/248/248
f 258/258/258 257/257/257 256/256/256
f 258/258/258 259/259/259 257/257/257
f 262/262/262 261/261/261 260/260/260
f 262/262/262 263/263/263 261/261/261
f 265/265/265 264/264/264 255/255/255
f 265/265/265 266/266/266 264/264/264
f 268/268/268 262/262/262 267/267/267
f 268/268/268 269/269/269 262/262/262
f 270/270/270 268/268/268 266/266/266
f 270/270/270 271/271/271 268/268/268
f 274/274/274 273/273/273 272/272/272
f 274/274/274 275/275/275 273/273/273
f 278/278/278 277/277/277 276/276/276
f 278/278/278 279/279/279 277/277/277
f 282/282/282 281/281/281 280/280/280
f 282/282/282 283/283/283 281/281/281
f 286/286/286 285/285/285 284/284/284
f 286/286/286 287/287/287 285/285/285
f 290/290/290 289/289/289 288/288/288
f 290/290/290 291/291/291 289/289/289
f 292/292/292 293/293/293 294/294/294
f 293/293/293 295/295/295 294/294/294
f 298/298/298 297/297/297 296/296/296
f 298/298/298 299/299/299 297/297/297
f 300/300/300 301/301/301 302/302/302
f 301/301/301 303/303/303 302/302/302
f 304/304/304 305/305/305 306/306/306
f 305/305/305 307/307/307 306/306/306
f 308/308/308 309/309/309 310/310/310
f 309/309/309 311/311/311 310/310/310
f 312/312/312 313/313/313 314/314/314
f 313/313/313 315/315/315 314/314/314
f 316/316/316 317/317/317 318/318/318
f 317/317/317 319/319/319 318/318/318
f 320/320/320 318/318/318 321/321/321
f 318/318/318 322/322/322 321/321/321
f 319/319/319 323/323/323 324/324/324
f 323/323/323 325/325/325 324/324/324
f 326/326/326 321/321/321 327/327/327
f 321/321/321 328/328/328 327/327/327
f 325/325/325 329/329/329 330/330/330
f 329/329/329 331/331/331 330/330/330
f 328/328/328 332/332/332 333/333/333
f 332/332/332 334/334/334 333/333/333
f 335/335/335 336/336/336 337/337/337
f 336/336/336 338/338/338 337/337/337
f 334/334/334 339/339/339 340/340/340
f 339/339/339 341/341/341 340/340/340
f 342/342/342 343/343/343 344/344/344
f 343/343/343 345/345/345 344/344/344
f 346/346/346 347/347/347 348/348/348
f 347/347/347 349/349/349 348/348/348
f 350/350/350 344/344/344 351/351/351
f 344/344/344 352/352/352 351/351/351
f 349/349/349 353/353/353 354/354/354
f 353/353/353 355/355/355 354/354/354
f 356/356/356 357/357/357 358/358/358
f 357/357/357 359/359/359 358/358/358
f 360/360/360 361/361/361 362/362/362
f 361/361/361 363/363/363 362/362/362
f 359/359/359 364/364/364 365/365/365
f 364/364/364 366/366/366 365/365/365
f 367/367/367 368/368/368 369/369/369
f 368/368/368 370/370/370 369/369/369
f 371/371/371 372/372/372 373/373/373
f 372/372/372 374/374/374 373/373/373
f 375/375/375 376/376/376 377/377/377
f 376/376/376 378/378/378 377/377/377
f 381/381/381 380/380/380 379/379/379
f 381/381/381 382/382/382 380/380/380
f 385/385/385 384/384/384 383/383/383
f 385/385/385 386/386/386 384/384/384
f 389/389/389 388/388/388 387/387/387
f 389/389/389 390/390/390 388/388/388
f 392/392/392 385/385/385 391/391/391
f 392/392/392 393/393/393 385/385/385
f 395/395/395 394/394/394 390/390/390
f 395/395/395 396/396/396 394/394/394
f 399/399/399 398/398/398 397/397/397
f 399/399/399 400/400/400 398/398/398
f 403/403/403 402/402/402 401/401/401
f 403/403/403 404/404/404 402/402/402
f 406/406/406 405/405/405 400/400/400
f 406/406/406 407/407/407 405/405/405
f 409/409/409 403/403/403 408/408/408
f 409/409/409 410/410/410 403/403/403
f 413/413/413 412/412/412 411/411/411
f 413/413/413 414/414/414 412/412/412
f 417/417/417 416/416/416 415/415/415
f 417/417/417 418/418/418 416/416/416
f 420/420/420 417/417/417 419/419/419
f 420/420/420 421/421/421 417/417/417
f 423/423/423 422/422/422 418/418/418
f 423/423/423 424/424/424 422/422/422
f 426/426/426 420/420/420 425/425/425
f 426/426/426 427/427/427 420/420/420
f 429/429/429 428/428/428 424/424/424
f 429/429/429 430/430/430 428/428/428
f 432/432/432 431/431/431 427/427/427
f 432/432/432 433/433/433 431/431/431
f 435/435/435 429/429/429 434/434/434
f 435/435/435 436/436/436 429/429/429
f 437/437/437 435/435/435 433/433/433
f 437/437/437 438/438/438 435/435/435
f 441/441/441 440/440/440 439/439/439
f 441/441/441 442/442/442 440/440/440
f 445/445/445 444/444/444 443/443/443
f 445/445/445 446/446/446 444/444/444
f 449/449/449 448/448/448 447/447/447
f 449/449/449 450/450/450 448/448/448
